<svg width="24" height="24" viewBox="0 0 24 24" fill="none" xmlns="http://www.w3.org/2000/svg">
<path d="M16.5 0H7.5C3.3585 0 0 3.3585 0 7.5V16.5C0 20.6415 3.3585 24 7.5 24H16.5C20.6415 24 24 20.6415 24 16.5V7.5C24 3.3585 20.6415 0 16.5 0ZM21.75 16.5C21.75 19.395 19.395 21.75 16.5 21.75H7.5C4.605 21.75 2.25 19.395 2.25 16.5V7.5C2.25 4.605 4.605 2.25 7.5 2.25H16.5C19.395 2.25 21.75 4.605 21.75 7.5V16.5Z" fill="white"/>
<path d="M12 6.00012C8.6865 6.00012 6 8.68667 6 12.0002C6 15.3138 8.6865 18.0003 12 18.0003C15.3135 18.0003 18 15.3138 18 12.0002C18 8.68667 15.3135 6.00012 12 6.00012ZM12 15.7503C9.933 15.7503 8.25 14.0673 8.25 12.0002C8.25 9.93169 9.933 8.25016 12 8.25016C14.067 8.25016 15.75 9.93169 15.75 12.0002C15.75 14.0673 14.067 15.7503 12 15.7503Z" fill="white"/>
<path d="M18.4501 6.34974C18.8917 6.34974 19.2496 5.99176 19.2496 5.55018C19.2496 5.10859 18.8917 4.75061 18.4501 4.75061C18.0086 4.75061 17.6506 5.10859 17.6506 5.55018C17.6506 5.99176 18.0086 6.34974 18.4501 6.34974Z" fill="white"/>
</svg>
