<svg width="37" height="50" viewBox="0 0 37 50" fill="none" xmlns="http://www.w3.org/2000/svg">
<path d="M24.1879 23.5862C24.1879 20.777 21.6363 18.4915 18.5 18.4915C15.3637 18.4915 12.8122 20.777 12.8122 23.5862C12.8122 26.3955 15.3637 28.6809 18.5 28.6809C21.6363 28.6809 24.1879 26.3954 24.1879 23.5862V23.5862ZM18.5001 25.7511C17.1673 25.7511 16.0831 24.7799 16.0831 23.5861C16.0831 22.3923 17.1673 21.4211 18.5001 21.4211C19.833 21.4211 20.9172 22.3923 20.9172 23.5861C20.9171 24.7799 19.8329 25.7511 18.5001 25.7511Z" fill="white"/>
<path d="M37 41.4411V28.5189L31.3689 25.3012C31.4359 23.9016 31.3973 22.4924 31.2471 21.0833C30.4663 13.7617 26.7352 6.94538 20.7413 1.89025L18.5001 0L16.2587 1.89025C10.2648 6.94548 6.53374 13.7618 5.7529 21.0833C5.60267 22.4924 5.56407 23.9016 5.63112 25.3012L0 28.5189V41.441L9.81254 38.679C10.2207 39.3415 10.6577 39.9911 11.1227 40.6268V46.7123H14.3934V41.9922H16.8647V44.263H20.1354V41.9922H22.6067V46.7123H25.8774V40.6268C26.3424 39.9912 26.7794 39.3415 27.1876 38.679L37 41.4411ZM33.7293 30.1251V37.4495L28.6422 36.0177C29.7834 33.6397 30.5804 31.1372 31.0148 28.574L33.7293 30.1251ZM18.4992 4.02328C21.4757 6.53366 23.7751 9.48926 25.3766 12.6839H11.6228C13.224 9.48926 15.5231 6.53356 18.4992 4.02328V4.02328ZM3.27074 37.4495V30.1251L5.98523 28.574C6.41948 31.1372 7.21645 33.6397 8.35782 36.0177L3.27074 37.4495ZM16.8647 36.3769V39.0624H13.8866C8.70104 32.0019 7.62921 23.3273 10.3714 15.6135H26.6283C29.3709 23.3272 28.2991 32.0019 23.1135 39.0624H20.1354V36.3769H16.8647Z" fill="white"/>
<path d="M16.8648 47.2168H20.1355V50H16.8648V47.2168Z" fill="white"/>
</svg>
