<svg width="30" height="24" viewBox="0 0 30 24" fill="none" xmlns="http://www.w3.org/2000/svg">
<path d="M30 3.20521C28.1129 3.29023 28.1541 3.28329 27.9408 3.30074L29.0584 0.180968C29.0584 0.180968 25.5698 1.43537 24.6854 1.65976C22.3627 -0.380792 18.9102 -0.470951 16.442 1.01186C14.4207 2.22644 13.3358 4.31218 13.6977 6.75005C9.76387 6.21648 6.44943 4.39384 3.83263 1.32127L3.00499 0.349653L2.38655 1.45975C1.60492 2.86247 1.34537 4.46632 1.6555 5.97576C1.78276 6.59502 1.99905 7.18564 2.29866 7.73867L1.58867 7.46976L1.50444 8.6293C1.41907 9.80719 1.8203 11.1822 2.5779 12.307C2.79121 12.6238 3.06587 12.9717 3.414 13.3149L3.0471 13.2599L3.4948 14.5885C4.08325 16.3342 5.30548 17.6848 6.89163 18.4356C5.30754 19.0927 4.02786 19.5119 1.92444 20.1882L0 20.8066L1.7775 21.7565C2.45522 22.1187 4.85001 23.3284 7.21619 23.6912C12.4759 24.4975 18.3978 23.8409 22.3844 20.3314C25.7423 17.3754 26.8442 13.1706 26.6153 8.79485C26.5807 8.13242 26.7664 7.50019 27.1381 7.01494C27.8826 6.04332 29.9954 3.2117 30 3.20521V3.20521ZM25.7325 5.98583C25.1152 6.79144 24.806 7.82033 24.8614 8.88255C25.0923 13.2963 23.8637 16.7192 21.2093 19.0558C18.1087 21.7854 13.1074 22.8568 7.48833 21.9952C6.47072 21.8393 5.41901 21.4901 4.54857 21.1413C6.3121 20.5482 7.67395 20.0195 9.87328 19.0021L12.9435 17.5817L9.55376 17.3696C7.93007 17.268 6.57806 16.4989 5.74699 15.2501C6.18828 15.225 6.61377 15.1552 7.03743 15.0398L10.2704 14.1597L7.01042 13.3793C5.42633 13.0001 4.52339 12.0737 4.0448 11.3632C3.73055 10.8963 3.52524 10.4179 3.4021 9.97699C3.72894 10.0627 4.11003 10.1237 4.72458 10.1833L7.74193 10.475L5.35126 8.65212C3.62869 7.33888 2.93839 5.3659 3.44444 3.4692C8.82042 8.91946 15.1325 8.50983 15.7679 8.65391C15.6281 7.32613 15.6244 7.323 15.5878 7.1966C14.7741 4.38511 16.5573 2.95756 17.3616 2.47432C19.0416 1.46512 21.7083 1.31299 23.5554 2.97568C23.9543 3.33452 24.4938 3.47569 24.9987 3.35309C25.4519 3.24302 25.8238 3.12646 26.188 2.99961L25.4299 5.11556L26.3976 5.11623C26.215 5.35561 25.9959 5.64219 25.7325 5.98583Z" fill="white"/>
</svg>
