<svg width="28" height="24" viewBox="0 0 28 24" fill="none" xmlns="http://www.w3.org/2000/svg">
<path d="M18.3095 10.5824L12.1236 6.75209C11.768 6.53185 11.3476 6.54007 10.9989 6.77385C10.6501 7.00786 10.442 7.42125 10.442 7.88009V15.4749C10.442 15.9316 10.6488 16.3442 10.9953 16.5785C11.1762 16.7008 11.3768 16.7622 11.5778 16.7622C11.762 16.7622 11.9465 16.7107 12.1164 16.6073L18.3024 12.843C18.6696 12.6194 18.8988 12.1873 18.9005 11.7152C18.902 11.2431 18.6756 10.8091 18.3095 10.5824V10.5824ZM12.0828 14.5195V8.84322L16.706 11.706L12.0828 14.5195Z" fill="white"/>
<path d="M27.7939 5.66445L27.7926 5.64995C27.7689 5.3949 27.5328 3.12631 26.5583 1.97244C25.4318 0.615254 24.1548 0.450381 23.5407 0.371328C23.4898 0.364801 23.4432 0.358757 23.4016 0.352472L23.3527 0.34667C19.651 0.0420646 14.0608 0.000483501 14.0048 0.00024175L13.9999 0L13.995 0.00024175C13.939 0.000483501 8.34875 0.0420646 4.6138 0.34667L4.56445 0.352472C4.52472 0.358516 4.48092 0.364076 4.43329 0.370361C3.82617 0.449656 2.56282 0.614771 1.43319 2.02103C0.505001 3.16258 0.236693 5.38257 0.209135 5.63206L0.205931 5.66445C0.1976 5.77058 0 8.29711 0 10.8336V13.2046C0 15.7411 0.1976 18.2676 0.205931 18.374L0.207426 18.3899C0.231138 18.6409 0.466976 20.8679 1.43703 22.0222C2.49617 23.334 3.83536 23.5076 4.55569 23.6009C4.66955 23.6156 4.7676 23.6282 4.83447 23.6415L4.89919 23.6516C7.03648 23.8818 13.7376 23.9952 14.0217 23.9998L14.0302 24L14.0388 23.9998C14.0947 23.9995 19.6848 23.9579 23.3864 23.6533L23.4353 23.6475C23.4821 23.6405 23.5347 23.6342 23.5923 23.6275C24.196 23.5549 25.4526 23.4043 26.5666 22.0172C27.4948 20.8754 27.7633 18.6554 27.7907 18.4061L27.7939 18.3737C27.8022 18.2674 28 15.7411 28 13.2046V10.8336C27.9998 8.29711 27.8022 5.77082 27.7939 5.66445V5.66445ZM26.359 13.2046C26.359 15.5523 26.1778 17.97 26.1607 18.1919C26.0911 18.8033 25.808 20.2079 25.3558 20.7642C24.6585 21.6323 23.9423 21.7184 23.4193 21.781C23.3561 21.7885 23.2976 21.7957 23.2446 21.8032C19.6643 22.0962 14.2851 22.1412 14.0373 22.1429C13.7594 22.1383 7.15632 22.0239 5.08419 21.8061C4.97802 21.7865 4.86331 21.7715 4.7424 21.7561C4.12909 21.6765 3.28956 21.5678 2.64399 20.7642L2.62883 20.7458C2.18449 20.2219 1.90956 18.9085 1.83971 18.1992C1.82668 18.0314 1.64083 15.5852 1.64083 13.2046V10.8336C1.64083 8.48858 1.82155 6.07349 1.83907 5.84697C1.92217 5.1268 2.21055 3.80732 2.64399 3.27402C3.36261 2.37955 4.12033 2.28043 4.62149 2.21492C4.66934 2.20863 4.71398 2.20283 4.75521 2.19678C8.38763 1.90233 13.8055 1.85858 13.9999 1.85688C14.1943 1.85833 19.6102 1.90233 23.2104 2.19678C23.2546 2.20307 23.3029 2.20936 23.3548 2.21612C23.8703 2.28261 24.6493 2.38317 25.3643 3.24622L25.371 3.2542C25.8153 3.77807 26.0902 5.11447 26.1601 5.83803C26.1725 5.99637 26.359 8.44796 26.359 10.8336V13.2046Z" fill="white"/>
</svg>
