<svg width="24" height="24" viewBox="0 0 24 24" fill="none" xmlns="http://www.w3.org/2000/svg">
<path d="M18.0938 2.48448C18.0938 2.74338 17.8839 2.95321 17.625 2.95321C17.3661 2.95321 17.1562 2.74338 17.1562 2.48448C17.1562 2.22558 17.3661 2.01575 17.625 2.01575C17.8839 2.01575 18.0938 2.22558 18.0938 2.48448Z" fill="white"/>
<path d="M7.78125 9.18774C5.71344 9.18774 4.03125 10.8699 4.03125 12.9378C4.03125 15.0056 5.71344 16.6878 7.78125 16.6878C9.84906 16.6878 11.5312 15.0056 11.5312 12.9378C11.5312 10.8699 9.84906 9.18774 7.78125 9.18774ZM7.78125 15.7503C6.23035 15.7503 4.96875 14.4887 4.96875 12.9378C4.96875 11.3868 6.23035 10.1252 7.78125 10.1252C9.33215 10.1252 10.5938 11.3868 10.5938 12.9378C10.5938 14.4887 9.33215 15.7503 7.78125 15.7503Z" fill="white"/>
<path d="M16.2188 9.18774C14.1509 9.18774 12.4688 10.8699 12.4688 12.9378C12.4688 15.0056 14.1509 16.6878 16.2188 16.6878C18.2866 16.6878 19.9688 15.0056 19.9688 12.9378C19.9688 10.8699 18.2866 9.18774 16.2188 9.18774ZM16.2188 15.7503C14.6678 15.7503 13.4062 14.4887 13.4062 12.9378C13.4062 11.3868 14.6678 10.1252 16.2188 10.1252C17.7697 10.1252 19.0312 11.3868 19.0312 12.9378C19.0312 14.4887 17.7697 15.7503 16.2188 15.7503Z" fill="white"/>
<path d="M21.6562 0H2.34375C1.05139 0 0 1.05139 0 2.34375V21.6562C0 22.9486 1.05139 24 2.34375 24H21.6562C22.9486 24 24 22.9486 24 21.6562V2.34375C24 1.05139 22.9486 0 21.6562 0ZM23.0625 21.6562C23.0625 22.4317 22.4317 23.0625 21.6562 23.0625H2.34375C1.5683 23.0625 0.9375 22.4317 0.9375 21.6562V2.34375C0.9375 1.5683 1.5683 0.9375 2.34375 0.9375H21.6562C22.4317 0.9375 23.0625 1.5683 23.0625 2.34375V21.6562Z" fill="white"/>
<path d="M6.375 2.95321H15.75C16.0089 2.95321 16.2187 2.74338 16.2187 2.48448C16.2187 2.22558 16.0089 2.01575 15.75 2.01575H6.375C6.11609 2.01575 5.90625 2.22558 5.90625 2.48448C5.90625 2.74338 6.11609 2.95321 6.375 2.95321Z" fill="white"/>
</svg>
