?xml version="1.0" standalone="no"?>
<!DOCTYPE svg PUBLIC "-//W3C//DTD SVG 20010904//EN"
 "http://www.w3.org/TR/2001/REC-SVG-20010904/DTD/svg10.dtd">
<svg version="1.0" xmlns="http://www.w3.org/2000/svg"
 width="1000.000000pt" height="1000.000000pt"
 preserveAspectRatio="xMidYMid meet">
<metadata>
Created by potrace 1.16, written by Peter Selinger 2001-2019
</metadata>
<g transform="translate(0.000000,96.000000) scale(0.100000,-0.100000)"
fill="#000000" stroke="none">
<path d="M180 860 c-19 -19 -20 -33 -20 -380 0 -347 1 -361 20 -380 19 -19 33
-20 300 -20 267 0 281 1 300 20 19 19 20 33 20 283 l0 262 -118 118 -117 117
-183 0 c-169 0 -183 -1 -202 -20z m550 -257 c0 -2 -47 -3 -105 -3 l-105 0 0
107 0 108 105 -105 c58 -58 105 -106 105 -107z m-50 -123 c0 -33 -3 -40 -20
-40 -18 0 -20 -7 -20 -59 0 -121 -30 -171 -102 -171 -25 0 -46 -7 -60 -20 -32
-29 -89 -27 -120 5 -29 29 -38 63 -38 146 0 52 -2 59 -20 59 -17 0 -20 7 -20
40 l0 40 60 0 60 0 0 -120 c0 -113 1 -120 20 -120 19 0 20 7 20 100 l0 100 40
0 40 0 0 -80 c0 -73 2 -80 20 -80 19 0 20 7 20 120 l0 120 60 0 60 0 0 -40z"/>
</g>
</svg>
